<?xml version="1.0" encoding="UTF-8" standalone="no"?>
<svg width="124px" height="125px" viewBox="0 0 124 125" version="1.1" xmlns="http://www.w3.org/2000/svg" xmlns:xlink="http://www.w3.org/1999/xlink" xmlns:sketch="http://www.bohemiancoding.com/sketch/ns">
    <!-- Generator: Sketch 3.3.2 (12043) - http://www.bohemiancoding.com/sketch -->
    <title>active business illus.</title>
    <desc>Created with Sketch.</desc>
    <defs>
        <circle id="path-1" cx="62" cy="62.1" r="62"></circle>
        <circle id="path-3" cx="62" cy="62" r="62"></circle>
    </defs>
    <g id="Page-1" stroke="none" stroke-width="1" fill="none" fill-rule="evenodd" sketch:type="MSPage">
        <g id="active-business-illus." sketch:type="MSLayerGroup" transform="translate(0.000000, 0.096774)">
            <circle id="Oval" fill="#D3DEE6" sketch:type="MSShapeGroup" cx="62" cy="62.1" r="62"></circle>
            <g id="Clipped">
                <mask id="mask-2" sketch:name="SVGID_3_" fill="white">
                    <use xlink:href="#path-1"></use>
                </mask>
                <g id="SVGID_3_"></g>
                <g id="Group" mask="url(#mask-2)" sketch:type="MSShapeGroup">
                    <g transform="translate(40.000000, -6.000000)">
                        <path d="M21.9,72.3 L1,72.3 L14.7,97 C14.7,93 17.9,89.8 21.9,89.8 L22,89.8 C26,89.8 29.2,93 29.2,97 L22,110.3 L43,72.4 L22.1,72.4 L21.9,72.4 L21.9,72.3 Z" id="Shape" fill="#FFFFFF"></path>
                        <path d="M14.7,97.1 L22,110.3 L14.7,97.1 L14.7,97.1 Z" id="Shape" fill="#485567"></path>
                        <path d="M14.7,97.1 L22,110.3 L29.3,97.1 L14.7,97.1 Z" id="Shape" fill="#485567"></path>
                        <rect id="Rectangle-path" fill="#FFFFFF" x="43" y="72.3291667" width="0.129166667" height="-0.129166667"></rect>
                        <rect id="Rectangle-path" fill="#FFFFFF" x="0.929166667" y="72.3" width="-0.129166667" height="0.129166667"></rect>
                        <path d="M22.1,72.3 L43,72.3 C37.2,72.3 32.5,67.6 32.5,61.8 C32.6,67.6 27.9,72.3 22.1,72.3 L22.1,72.3 Z" id="Shape" fill="#FFFFFF"></path>
                        <rect id="Rectangle-path" fill="#FFFFFF" x="32.6291667" y="61.9" width="-0.129166667" height="20.9"></rect>
                        <rect id="Rectangle-path" fill="#FFFFFF" x="1" y="72.3291667" width="20.9" height="-0.129166667"></rect>
                        <path d="M11.4,58.8 L11.4,61.9 C11.4,67.7 16.1,72.4 21.9,72.4 L22.1,72.4 C27.9,72.4 32.6,67.7 32.6,61.9 L32.6,58.8 L11.4,58.8 L11.4,58.8 L11.4,58.8 Z" id="Shape" fill="#91AEC2"></path>
                        <rect id="Rectangle-path" fill="#91AEC2" x="21.9" y="72.3291667" width="0.2" height="-0.129166667"></rect>
                        <rect id="Rectangle-path" fill="#485567" x="14.7291667" y="97.1291667" width="-0.129166667" height="-0.129166667"></rect>
                        <path d="M29.3,97.1 C29.3,93.1 26.1,89.9 22.1,89.9 L22,89.9 C18,89.9 14.8,93.1 14.8,97.1 L14.8,97.1 L29.3,97.1 L29.3,97.1 Z" id="Shape" fill="#485567"></path>
                        <path id="Shape" fill="#FFFFFF" d="M11.4,0.4 L11.4,54.4 L11.4,58.8 L11.4,0.4 L11.4,0.4 Z"></path>
                        <path d="M1,72.3 L21.9,72.3 C16.1,72.3 11.4,67.6 11.4,61.8 C11.4,67.6 6.7,72.3 1,72.3 L1,72.3 Z" id="Shape" fill="#FFFFFF"></path>
                        <rect id="Rectangle-path" fill="#91AEC2" x="11.4" y="0.4" width="21.1" height="58.3"></rect>
                        <rect id="Rectangle-path" fill="#B1C6D4" x="0.8" y="0.4" width="0.129166667" height="71.9"></rect>
                        <path d="M0.9,54.4 L0.9,0.4 L0.9,72.3 L1,72.3 C6.8,72.3 11.5,67.6 11.5,61.8 L11.5,58.7 L11.5,54.3 L0.9,54.3 L0.9,54.4 Z" id="Shape" fill="#B1C6D4"></path>
                        <rect id="Rectangle-path" fill="#B1C6D4" x="0.9" y="0.4" width="10.6" height="53.9"></rect>
                        <path id="Shape" fill="#485567" d="M43.1,54.4 L43.1,54.4 L43.1,72.3 L43.2291667,72.3 L43.2291667,0.4 L43.1,0.4 L43.1,54.4 Z"></path>
                        <path d="M32.6,54.4 L32.6,0.4 L32.6,58.7 L32.6,61.8 C32.6,67.6 37.3,72.3 43.1,72.3 L43.2,72.3 L43.2,54.4 L32.6,54.4 L32.6,54.4 Z" id="Shape" fill="#485567"></path>
                        <rect id="Rectangle-path" fill="#485567" x="43.1291667" y="0.4" width="-0.129166667" height="53.9"></rect>
                        <rect id="Rectangle-path" fill="#485567" x="32.6" y="0.4" width="10.6" height="53.9"></rect>
                    </g>
                </g>
            </g>
            <circle id="Oval" fill="#78DCFA" sketch:type="MSShapeGroup" cx="62" cy="62" r="62"></circle>
            <g id="Clipped">
                <mask id="mask-4" sketch:name="SVGID_1_" fill="white">
                    <use xlink:href="#path-3"></use>
                </mask>
                <g id="SVGID_1_"></g>
                <g id="Group" mask="url(#mask-4)" sketch:type="MSShapeGroup">
                    <g transform="translate(38.000000, -6.000000)">
                        <path d="M47.2,75.9 C47.2,66.5 41.6,58.5 33.7,54.8 L33.7,42.8 L14.4,42.8 L14.4,54.9 C6.4,58.6 0.9,66.6 0.9,76 C0.9,80.9 2.4,85.4 5,89.1 L5,89.1 C20.4,111.5 20.4,111.5 22,113.9 L26,113.9 C27.6,111.5 27.6,111.5 43,89.1 L43,89.1 C45.6,85.3 47.2,80.8 47.2,75.9 L47.2,75.9 Z" id="Shape" fill="none"></path>
                        <path d="M19.4,79.8 C19.4,77.3 21.4,75.2 24,75.2 L24,42.8 L14.4,42.8 L14.4,54.9 C6.4,58.6 0.9,66.6 0.9,76 C0.9,80.9 2.4,85.4 5,89.1 L5,89.1 C20.4,111.5 20.4,111.5 22,113.9 L22.3,113.9 L22.3,84.1 C20.6,83.4 19.4,81.7 19.4,79.8 L19.4,79.8 Z" id="Shape" fill="#FFFFFF" fill-rule="evenodd"></path>
                        <path d="M47.2,75.9 C47.2,66.5 41.6,58.5 33.7,54.8 L33.7,42.8 L24,42.8 L24,75.3 C26.5,75.3 28.6,77.3 28.6,79.9 C28.6,81.8 27.4,83.4 25.7,84.1 L25.7,113.9 L26,113.9 C27.6,111.5 27.6,111.5 43,89.1 L43,89.1 C45.6,85.3 47.2,80.8 47.2,75.9 L47.2,75.9 Z" id="Shape" fill="#E9EFF3" fill-rule="evenodd"></path>
                        <path d="M22.3,113.9 L22.3,114.9 L25.7,114.9 L25.7,113.9 L24,113.9 L22.3,113.9 Z" id="Shape" fill="#D3DEE6" fill-rule="evenodd"></path>
                        <path d="M39.7,38 L8.2,38 C5,38 2.4,40.6 2.4,43.8 L2.4,44 C2.4,47.2 5,49.8 8.2,49.8 L39.7,49.8 C42.9,49.8 45.5,47.2 45.5,44 L45.5,43.9 C45.6,40.6 43,38 39.7,38 L39.7,38 Z" id="Shape" fill="#0087BE" fill-rule="evenodd"></path>
                        <path d="M24,38 L8.2,38 C5,38 2.4,40.6 2.4,43.8 L2.4,44 C2.4,47.2 5,49.8 8.2,49.8 L24,49.8 L24,38 L24,38 Z" id="Shape" fill="#00AADC" fill-rule="evenodd"></path>
                        <path id="Shape" fill="#D3DEE6" fill-rule="evenodd" d="M24.1,90 L24.1,89.6 L24.1,89.8 L24.1,90 Z"></path>
                        <path id="Shape" fill="#D3DEE6" fill-rule="evenodd" d="M24,90 L24.1291667,89.8 L24,89.6 L24,90 Z"></path>
                        <path d="M1.8,0.4 C3.1,9 5,17.5 7.5,26 L12.5,45.1 L24,45.1 L24,0.4 L1.8,0.4 L1.8,0.4 Z" id="Shape" fill="#00AADC" fill-rule="evenodd"></path>
                        <path d="M24,45.1 L35.5,45.1 L40.5,26 C43,17.6 44.9,9 46.2,0.4 L24,0.4 L24,45.1 L24,45.1 Z" id="Shape" fill="#0087BE" fill-rule="evenodd"></path>
                        <rect id="Rectangle-path" fill="#485567" fill-rule="evenodd" x="24.0291667" y="0.4" width="-0.129166667" height="44.7"></rect>
                    </g>
                </g>
            </g>
        </g>
    </g>
</svg>