<?xml version="1.0" encoding="UTF-8" standalone="no"?>
<svg width="124px" height="125px" viewBox="0 0 124 125" version="1.1" xmlns="http://www.w3.org/2000/svg" xmlns:xlink="http://www.w3.org/1999/xlink" xmlns:sketch="http://www.bohemiancoding.com/sketch/ns">
    <!-- Generator: Sketch 3.3.2 (12043) - http://www.bohemiancoding.com/sketch -->
    <title>plan-premium copy 2</title>
    <desc>Created with Sketch.</desc>
    <defs>
        <ellipse id="path-1" cx="62" cy="62.1" rx="62" ry="62"></ellipse>
        <ellipse id="path-3" cx="62" cy="62" rx="62" ry="62"></ellipse>
        <ellipse id="path-5" cx="62" cy="62" rx="62" ry="62"></ellipse>
    </defs>
    <g id="Page-1" stroke="none" stroke-width="1" fill="none" fill-rule="evenodd" sketch:type="MSPage">
        <g id="plan-premium-copy-2" sketch:type="MSLayerGroup" transform="translate(0.000000, 0.096774)">
            <ellipse id="Oval" fill="#D3DEE6" sketch:type="MSShapeGroup" cx="62" cy="62.1" rx="62" ry="62"></ellipse>
            <g id="Clipped">
                <mask id="mask-2" sketch:name="SVGID_3_" fill="white">
                    <use xlink:href="#path-1"></use>
                </mask>
                <g id="SVGID_3_"></g>
                <g id="Group" mask="url(#mask-2)" sketch:type="MSShapeGroup">
                    <g transform="translate(40.000000, -6.000000)">
                        <path d="M21.9,72.3 L1,72.3 L14.7,97 C14.7,93 17.9,89.8 21.9,89.8 L22,89.8 C26,89.8 29.2,93 29.2,97 L22,110.3 L43,72.4 L22.1,72.4 L21.9,72.4 L21.9,72.3 Z" id="Shape" fill="#FFFFFF"></path>
                        <path d="M14.7,97.1 L22,110.3 L14.7,97.1 L14.7,97.1 Z" id="Shape" fill="#485567"></path>
                        <path d="M14.7,97.1 L22,110.3 L29.3,97.1 L14.7,97.1 Z" id="Shape" fill="#485567"></path>
                        <rect id="Rectangle-path" fill="#FFFFFF" x="43" y="72.3" width="0.1" height="-0.1"></rect>
                        <rect id="Rectangle-path" fill="#FFFFFF" x="0.9" y="72.3" width="-0.1" height="0.1"></rect>
                        <path d="M22.1,72.3 L43,72.3 C37.2,72.3 32.5,67.6 32.5,61.8 C32.6,67.6 27.9,72.3 22.1,72.3 L22.1,72.3 Z" id="Shape" fill="#FFFFFF"></path>
                        <rect id="Rectangle-path" fill="#FFFFFF" x="32.6" y="61.9" width="-0.1" height="20.9"></rect>
                        <rect id="Rectangle-path" fill="#FFFFFF" x="1" y="72.3" width="20.9" height="-0.1"></rect>
                        <path d="M11.4,58.8 L11.4,61.9 C11.4,67.7 16.1,72.4 21.9,72.4 L22.1,72.4 C27.9,72.4 32.6,67.7 32.6,61.9 L32.6,58.8 L11.4,58.8 L11.4,58.8 L11.4,58.8 Z" id="Shape" fill="#91AEC2"></path>
                        <rect id="Rectangle-path" fill="#91AEC2" x="21.9" y="72.3" width="0.2" height="-0.1"></rect>
                        <rect id="Rectangle-path" fill="#485567" x="14.7" y="97.1" width="-0.1" height="-0.1"></rect>
                        <path d="M29.3,97.1 C29.3,93.1 26.1,89.9 22.1,89.9 L22,89.9 C18,89.9 14.8,93.1 14.8,97.1 L14.8,97.1 L29.3,97.1 L29.3,97.1 Z" id="Shape" fill="#485567"></path>
                        <path id="Shape" fill="#FFFFFF" d="M11.4,0.4 L11.4,54.4 L11.4,58.8 L11.4,0.4 L11.4,0.4 Z"></path>
                        <path d="M1,72.3 L21.9,72.3 C16.1,72.3 11.4,67.6 11.4,61.8 C11.4,67.6 6.7,72.3 1,72.3 L1,72.3 Z" id="Shape" fill="#FFFFFF"></path>
                        <rect id="Rectangle-path" fill="#91AEC2" x="11.4" y="0.4" width="21.1" height="58.3"></rect>
                        <rect id="Rectangle-path" fill="#B1C6D4" x="0.8" y="0.4" width="0.1" height="71.9"></rect>
                        <path d="M0.9,54.4 L0.9,0.4 L0.9,72.3 L1,72.3 C6.8,72.3 11.5,67.6 11.5,61.8 L11.5,58.7 L11.5,54.3 L0.9,54.3 L0.9,54.4 Z" id="Shape" fill="#B1C6D4"></path>
                        <rect id="Rectangle-path" fill="#B1C6D4" x="0.9" y="0.4" width="10.6" height="53.9"></rect>
                        <path id="Shape" fill="#485567" d="M43.1,54.4 L43.1,54.4 L43.1,72.3 L43.2,72.3 L43.2,0.4 L43.1,0.4 L43.1,54.4 Z"></path>
                        <path d="M32.6,54.4 L32.6,0.4 L32.6,58.7 L32.6,61.8 C32.6,67.6 37.3,72.3 43.1,72.3 L43.2,72.3 L43.2,54.4 L32.6,54.4 L32.6,54.4 Z" id="Shape" fill="#485567"></path>
                        <rect id="Rectangle-path" fill="#485567" x="43.1" y="0.4" width="-0.1" height="53.9"></rect>
                        <rect id="Rectangle-path" fill="#485567" x="32.6" y="0.4" width="10.6" height="53.9"></rect>
                    </g>
                </g>
            </g>
            <ellipse id="Oval" fill="#D3DEE6" sketch:type="MSShapeGroup" cx="62" cy="62" rx="62" ry="62"></ellipse>
            <g id="Clipped">
                <mask id="mask-4" sketch:name="SVGID_1_" fill="white">
                    <use xlink:href="#path-3"></use>
                </mask>
                <g id="SVGID_1_"></g>
                <g id="Group" mask="url(#mask-4)" sketch:type="MSShapeGroup">
                    <g transform="translate(38.000000, -6.000000)">
                        <path d="M47.2,75.9 C47.2,66.5 41.6,58.5 33.7,54.8 L33.7,42.8 L14.4,42.8 L14.4,54.9 C6.4,58.6 0.9,66.6 0.9,76 C0.9,80.9 2.4,85.4 5,89.1 L5,89.1 C20.4,111.5 20.4,111.5 22,113.9 L26,113.9 C27.6,111.5 27.6,111.5 43,89.1 L43,89.1 C45.6,85.3 47.2,80.8 47.2,75.9 L47.2,75.9 Z" id="Shape" fill="none"></path>
                        <path d="M19.4,79.8 C19.4,77.3 21.4,75.2 24,75.2 L24,42.8 L14.4,42.8 L14.4,54.9 C6.4,58.6 0.9,66.6 0.9,76 C0.9,80.9 2.4,85.4 5,89.1 L5,89.1 C20.4,111.5 20.4,111.5 22,113.9 L22.3,113.9 L22.3,84.1 C20.6,83.4 19.4,81.7 19.4,79.8 L19.4,79.8 Z" id="Shape" fill="#FFFFFF" fill-rule="evenodd"></path>
                        <path d="M47.2,75.9 C47.2,66.5 41.6,58.5 33.7,54.8 L33.7,42.8 L24,42.8 L24,75.3 C26.5,75.3 28.6,77.3 28.6,79.9 C28.6,81.8 27.4,83.4 25.7,84.1 L25.7,113.9 L26,113.9 C27.6,111.5 27.6,111.5 43,89.1 L43,89.1 C45.6,85.3 47.2,80.8 47.2,75.9 L47.2,75.9 Z" id="Shape" fill="#B1C6D4" fill-rule="evenodd"></path>
                        <path d="M22.3,113.9 L22.3,114.9 L25.7,114.9 L25.7,113.9 L24,113.9 L22.3,113.9 Z" id="Shape" fill="#D3DEE6" fill-rule="evenodd"></path>
                        <path d="M39.7,38 L8.2,38 C5,38 2.4,40.6 2.4,43.8 L2.4,44 C2.4,47.2 5,49.8 8.2,49.8 L39.7,49.8 C42.9,49.8 45.5,47.2 45.5,44 L45.5,43.9 C45.6,40.6 43,38 39.7,38 L39.7,38 Z" id="Shape" fill="#485567" fill-rule="evenodd"></path>
                        <path d="M24,38 L8.2,38 C5,38 2.4,40.6 2.4,43.8 L2.4,44 C2.4,47.2 5,49.8 8.2,49.8 L24,49.8 L24,38 L24,38 Z" id="Shape" fill="#546170" fill-rule="evenodd"></path>
                        <path id="Shape" fill="#D3DEE6" fill-rule="evenodd" d="M24.1,90 L24.1,89.6 L24.1,89.8 L24.1,90 Z"></path>
                        <path id="Shape" fill="#D3DEE6" fill-rule="evenodd" d="M24,90 L24.1,89.8 L24,89.6 L24,90 Z"></path>
                        <path d="M1.8,0.4 C3.1,9 5,17.5 7.5,26 L12.5,45.1 L24,45.1 L24,0.4 L1.8,0.4 L1.8,0.4 Z" id="Shape" fill="#546170" fill-rule="evenodd"></path>
                        <path d="M24,45.1 L35.5,45.1 L40.5,26 C43,17.6 44.9,9 46.2,0.4 L24,0.4 L24,45.1 L24,45.1 Z" id="Shape" fill="#485567" fill-rule="evenodd"></path>
                        <rect id="Rectangle-path" fill="#485567" fill-rule="evenodd" x="24" y="0.4" width="-0.1" height="44.7"></rect>
                    </g>
                </g>
            </g>
            <ellipse id="Oval" fill="#78DCFA" sketch:type="MSShapeGroup" cx="62" cy="62" rx="62" ry="62"></ellipse>
            <g id="Clipped">
                <mask id="mask-6" sketch:name="SVGID_2_" fill="white">
                    <use xlink:href="#path-5"></use>
                </mask>
                <g id="SVGID_2_"></g>
                <g id="Group" mask="url(#mask-6)">
                    <g transform="translate(38.000000, -5.000000)">
                        <g id="Group" stroke-width="1" fill="none" sketch:type="MSLayerGroup" transform="translate(1.000000, 1.000000)">
                            <path d="M4,38.2 C3.4,33.4 2.8,28.2 2.1,22.7 C2.7,28.2 3.4,33.3 4,38.2 L4,38.2 Z" id="Shape" sketch:type="MSShapeGroup"></path>
                            <path id="Shape" sketch:type="MSShapeGroup" d="M45.8,6.5 L45.8,6.7 C45.7,6.7 45.8,6.6 45.8,6.5 L45.8,6.5 Z"></path>
                            <path id="Shape" sketch:type="MSShapeGroup" d="M44.1,21.5 L44.1,21.7 L44.1,21.5 L44.1,21.5 Z"></path>
                            <path d="M42.1,38.1 L42.1,38.1 C42.3,36.4 42.5,34.8 42.7,33.2 C42.8,32.1 43,31 43.1,29.9 C43.1,29.5 43.2,29.1 43.2,28.8 C42.8,32.2 42.4,35.5 42,38.7 C42.1,38.5 42.1,38.3 42.1,38.1 L42.1,38.1 Z" id="Shape" sketch:type="MSShapeGroup"></path>
                            <path d="M18.5,97.4 L16.6,97.4 L16.6,101.2 L21,112 C21.4,112.9 22.2,113.4 23.1,113.4 L23.1,97.4 L18.5,97.4 L18.5,97.4 Z" id="Shape" fill="#668EAA" sketch:type="MSShapeGroup"></path>
                            <path id="Shape" fill="#546170" sketch:type="MSShapeGroup" d="M29.5,97.4 L32.2,97.4 L29.5,97.4 L29.5,97.4 Z"></path>
                            <path d="M1.5,17 C1.1,13.2 0.6,9.2 0.2,5 C0.6,9.2 1,13.2 1.5,17 L1.5,17 Z" id="Shape" fill="#546170" sketch:type="MSShapeGroup"></path>
                            <path d="M18.5,97.4 L23,97.4 L18.5,97.4 Z" id="Shape" fill="#546170" sketch:type="MSShapeGroup"></path>
                            <path id="Shape" fill="#485567" sketch:type="MSShapeGroup" d="M33.3,92.7 C33.3,92.8 33.3,92.8 33.3,92.7 C33.4,92.3 33.5,91.8 33.6,91.2 L33.6,91.2 C33.5,91.8 33.4,92.3 33.3,92.7 L33.3,92.7 Z"></path>
                            <path id="Shape" fill="#485567" sketch:type="MSShapeGroup" d="M33.7,90.7 L33.7,90.7 C33.8,90.1 34,89.5 34.1,88.8 L34.1,88.9 C34,89.5 33.9,90.1 33.7,90.7 L33.7,90.7 Z"></path>
                            <path id="Shape" fill="#485567" sketch:type="MSShapeGroup" d="M34.2,88.7 L34.2,88.6 C34.2,88.6 34.2,88.6 34.2,88.7 L34.2,88.7 L34.2,88.7 Z"></path>
                            <path id="Shape" fill="#485567" sketch:type="MSShapeGroup" d="M37.1,73 L37.1,73 C37.2,72.3 37.4,71.4 37.5,70.6 C37.5,70.8 37.4,70.9 37.4,71.1 C37.3,71.7 37.2,72.4 37.1,73 L37.1,73 Z"></path>
                            <path d="M36.4,76.7 L36.4,76.7 C36.2,77.7 36.1,78.6 35.9,79.4 L35.9,79.5 C36.2,78.1 36.4,76.5 36.7,74.9 C36.7,75.1 36.6,75.4 36.6,75.6 C36.6,76 36.5,76.3 36.4,76.7 L36.4,76.7 Z" id="Shape" fill="#485567" sketch:type="MSShapeGroup"></path>
                            <path id="Shape" fill="#485567" sketch:type="MSShapeGroup" d="M34.3,87.9 L34.3,88.1 C34.4,87.7 34.5,87.2 34.6,86.8 L34.6,86.8 C34.5,87.1 34.4,87.5 34.3,87.9 L34.3,87.9 Z"></path>
                            <path id="Shape" fill="#485567" sketch:type="MSShapeGroup" d="M35.5,81.9 C35.5,81.9 35.5,82 35.5,81.9 C35.6,81.2 35.8,80.4 35.9,79.5 L35.9,79.6 C35.8,80.4 35.6,81.2 35.5,81.9 L35.5,81.9 Z"></path>
                            <path id="Shape" fill="#485567" sketch:type="MSShapeGroup" d="M35,84.2 C35,84.2 35,84.3 35,84.2 C35.1,83.6 35.2,82.9 35.4,82.2 C35.4,82.2 35.4,82.2 35.4,82.3 C35.3,82.9 35.2,83.6 35,84.2 L35,84.2 Z"></path>
                            <path id="Shape" fill="#485567" sketch:type="MSShapeGroup" d="M34.6,86.4 L34.6,86.5 C34.7,85.9 34.8,85.3 35,84.6 L35,84.6 C34.9,85.2 34.7,85.8 34.6,86.4 L34.6,86.4 Z"></path>
                            <path id="Shape" fill="#485567" sketch:type="MSShapeGroup" d="M32.9,94.4 C32.9,94.4 32.9,94.5 32.9,94.4 C33,94 33.1,93.6 33.2,93.1 L33.2,93.1 C33.1,93.6 33,94 32.9,94.4 L32.9,94.4 Z"></path>
                            <path d="M32.3,96.8 L32.3,96.8 C32.4,96.4 32.6,95.6 32.8,94.7 L32.8,94.7 C32.6,95.6 32.5,96.3 32.3,96.8 L32.3,96.8 Z" id="Shape" fill="#485567" sketch:type="MSShapeGroup"></path>
                            <path id="Shape" fill="#485567" sketch:type="MSShapeGroup" d="M44.9,14.7 C44.9,14.5 44.9,14.4 45,14.2 C45,14.4 45,14.6 44.9,14.8 C44.9,14.8 44.9,14.8 44.9,14.7 L44.9,14.7 Z"></path>
                            <path id="Shape" fill="#485567" sketch:type="MSShapeGroup" d="M32.3,97.1 L32.3,97 L32.3,97 L32.3,97.1 L32.3,97.1 Z"></path>
                            <path id="Shape" fill="#485567" sketch:type="MSShapeGroup" d="M45.8,6.3 L45.8,6.5 C45.9,5.4 46,4.2 46.2,3.1 L46.2,3.3 C46,4.4 45.9,5.4 45.8,6.3 L45.8,6.3 Z"></path>
                            <path d="M41.9,39.6 C41.2,44.8 40.6,49.6 40,54 L40,54.2 L40,54.3 C39.1,60.4 38.3,65.7 37.5,70.4 C37.5,70.4 37.5,70.4 37.5,70.5 C38.9,62.2 40.4,51.7 42.1,38.7 C42.1,38.8 42.1,39 42,39.1 C42,39.3 42,39.5 41.9,39.6 L41.9,39.6 Z" id="Shape" fill="#485567" sketch:type="MSShapeGroup"></path>
                            <path d="M43.4,27.7 C42.9,31.9 42.4,35.9 41.9,39.7 C41.9,39.5 41.9,39.3 42,39.1 C42,39 42,38.8 42.1,38.7 C42.5,35.6 42.9,32.3 43.3,28.8 C43.3,28.5 43.4,28.3 43.4,28 C43.4,27.9 43.4,27.8 43.4,27.7 L43.4,27.7 Z" id="Shape" fill="#485567" sketch:type="MSShapeGroup"></path>
                            <path id="Shape" fill="#485567" sketch:type="MSShapeGroup" d="M45.6,7.7 C45.6,7.4 45.7,7.1 45.7,6.8 L45.7,6.6 L45.7,6.4 C45.7,6.8 45.7,7.2 45.6,7.7 L45.6,7.7 Z"></path>
                            <path d="M44.9,14.3 C44.9,14.5 44.9,14.6 44.8,14.8 L44.8,15 C44.6,17.1 44.3,19.2 44.1,21.3 L44.1,21.6 C44.6,16.9 45.2,12 45.7,6.9 C45.7,7.2 45.6,7.5 45.6,7.8 C45.4,9.9 45.2,12.1 44.9,14.3 L44.9,14.3 Z" id="Shape" fill="#485567" sketch:type="MSShapeGroup"></path>
                            <path id="Shape" fill="#485567" sketch:type="MSShapeGroup" d="M44.1,21.7 L44.1,21.6 L44.1,21.4 L44.1,21.1 L44.1,21.7 L44.1,21.7 Z"></path>
                            <path d="M43.4,27.7 L43.4,28.1 C43.4,28.4 43.3,28.6 43.3,28.9 C43.6,26.6 43.9,24.2 44.1,21.7 L44.1,21.8 C43.9,23.8 43.6,25.7 43.4,27.7 L43.4,27.7 Z" id="Shape" fill="#485567" sketch:type="MSShapeGroup"></path>
                            <path id="Shape" fill="#485567" sketch:type="MSShapeGroup" d="M34.1,88.9 C34,89.5 33.8,90.1 33.7,90.7 C33.9,90.1 34,89.5 34.1,88.9 L34.1,88.9 Z"></path>
                            <path id="Shape" fill="#485567" sketch:type="MSShapeGroup" d="M29.5,97.4 L32.2,97.4 L29.5,97.4 L29.5,97.4 Z"></path>
                            <path id="Shape" fill="#485567" sketch:type="MSShapeGroup" d="M33.6,91.3 C33.5,91.8 33.4,92.3 33.3,92.8 C33.4,92.3 33.5,91.8 33.6,91.3 L33.6,91.3 Z"></path>
                            <path id="Shape" fill="#485567" sketch:type="MSShapeGroup" d="M32.2,97.4 L32.2,97.3 C32.2,97.3 32.2,97.3 32.2,97.4 C32.2,97.3 32.2,97.4 32.2,97.4 L32.2,97.4 Z"></path>
                            <path id="Shape" fill="#485567" sketch:type="MSShapeGroup" d="M32.2,97.1 L32.2,97.1 L32.2,96.9 C32.3,97 32.3,97.1 32.2,97.1 L32.2,97.1 Z"></path>
                            <path id="Shape" fill="#485567" sketch:type="MSShapeGroup" d="M33.2,93.1 C33.1,93.6 33,94 32.9,94.4 C33,94 33.1,93.6 33.2,93.1 L33.2,93.1 Z"></path>
                            <path id="Shape" fill="#485567" sketch:type="MSShapeGroup" d="M34.3,87.9 C34.4,87.5 34.5,87.2 34.5,86.8 C34.5,87.1 34.4,87.5 34.3,87.9 L34.3,87.9 Z"></path>
                            <path d="M40,54 C40.6,49.6 41.3,44.8 41.9,39.6 C41.9,39.8 41.9,39.9 41.8,40.1 C41.2,45.2 40.6,49.8 40,54 L40,54 Z" id="Shape" fill="#485567" sketch:type="MSShapeGroup"></path>
                            <path d="M32.3,96.8 C32.4,96.4 32.6,95.6 32.8,94.7 C32.7,95.1 32.6,95.5 32.5,95.8 C32.5,96.2 32.4,96.5 32.3,96.8 L32.3,96.8 Z" id="Shape" fill="#485567" sketch:type="MSShapeGroup"></path>
                            <path d="M44.1,21.7 C43.9,23.7 43.6,25.7 43.4,27.6 C43.6,25.7 43.9,23.8 44.1,21.7 L44.1,21.7 Z" id="Shape" fill="#485567" sketch:type="MSShapeGroup"></path>
                            <path d="M44.9,14.9 C44.7,17 44.4,19.1 44.2,21.2 C44.4,19.1 44.6,17 44.9,14.9 L44.9,14.9 Z" id="Shape" fill="#485567" sketch:type="MSShapeGroup"></path>
                            <path d="M45.6,7.7 C45.4,9.9 45.1,12.2 44.9,14.3 C45.2,12.1 45.4,9.9 45.6,7.7 L45.6,7.7 Z" id="Shape" fill="#485567" sketch:type="MSShapeGroup"></path>
                            <path id="Shape" fill="#485567" sketch:type="MSShapeGroup" d="M46.1,3.4 C46,4.4 45.9,5.4 45.8,6.4 C45.9,5.4 46,4.4 46.1,3.4 L46.1,3.4 Z"></path>
                            <path d="M39.9,54.3 C39,60.4 38.2,65.7 37.4,70.4 C38.3,65.7 39.1,60.4 39.9,54.3 L39.9,54.3 Z" id="Shape" fill="#485567" sketch:type="MSShapeGroup"></path>
                            <path id="Shape" fill="#485567" sketch:type="MSShapeGroup" d="M35.4,82.3 C35.3,83 35.1,83.6 35,84.3 C35.2,83.6 35.3,82.9 35.4,82.3 L35.4,82.3 Z"></path>
                            <path id="Shape" fill="#485567" sketch:type="MSShapeGroup" d="M35.9,79.6 C35.8,80.4 35.6,81.2 35.5,81.9 C35.6,81.2 35.8,80.4 35.9,79.6 L35.9,79.6 Z"></path>
                            <path id="Shape" fill="#485567" sketch:type="MSShapeGroup" d="M37.4,71.1 C37.3,71.7 37.2,72.4 37.1,73 C37.2,72.4 37.3,71.7 37.4,71.1 L37.4,71.1 Z"></path>
                            <path d="M36.4,76.8 C36.2,77.7 36.1,78.6 35.9,79.5 C36.1,78.6 36.3,77.7 36.4,76.8 L36.4,76.8 Z" id="Shape" fill="#485567" sketch:type="MSShapeGroup"></path>
                            <path id="Shape" fill="#485567" sketch:type="MSShapeGroup" d="M35,84.6 C34.9,85.2 34.8,85.8 34.7,86.4 C34.7,85.8 34.9,85.2 35,84.6 L35,84.6 Z"></path>
                            <path d="M25.1,112 L29.5,101.2 L29.5,97.4 L23,97.4 L23,105.082031 L23,113.4 C23.9,113.4 24.7,112.9 25.1,112 Z" id="Shape" fill="#4F748E" sketch:type="MSShapeGroup"></path>
                            <path id="Shape" fill="#91AEC2" sketch:type="MSShapeGroup" d="M26.1,97.4 L23,97.4 L29.5,97.4 L26.1,97.4 Z"></path>
                            <path id="Shape" fill="#91AEC2" sketch:type="MSShapeGroup" d="M26.1,97.4 L29.5,97.4 L29.1,97.4 L26.1,97.4 Z"></path>
                            <path d="M13.9,97.4 C13.9,97.4 13,94.3 11.6,87 C13,94.2 13.9,97.4 13.9,97.4 L16.5,97.4 L13.9,97.4 L13.9,97.4 Z" id="Shape" fill="#FFFFFF" sketch:type="MSShapeGroup"></path>
                            <path d="M11.6,86.9 C10.9,83.3 10,78.6 9,72.7 C10,78.6 10.9,83.3 11.6,86.9 L11.6,86.9 Z" id="Shape" fill="#FFFFFF" sketch:type="MSShapeGroup"></path>
                            <path d="M6.9,59.5 C6.5,57 6.2,54.4 5.8,51.6 C6.2,54.4 6.5,57 6.9,59.5 L6.9,59.5 Z" id="Shape" fill="#FFFFFF" sketch:type="MSShapeGroup"></path>
                            <path d="M8,66.5 C7.6,64.3 7.3,61.9 6.9,59.5 C7.3,62 7.6,64.3 8,66.5 L8,66.5 Z" id="Shape" fill="#FFFFFF" sketch:type="MSShapeGroup"></path>
                            <path id="Shape" fill="#FFFFFF" sketch:type="MSShapeGroup" d="M16.6,97.4 L16.6,97.4 L18.5,97.4 L16.6,97.4 Z"></path>
                            <path d="M16.6,97.4 L16.6,87.4 L23,87.4 L23,40.2 L4.2,40.2 C4.7,44.2 5.2,48.1 5.7,51.6 C6.1,54.4 6.5,57 6.8,59.5 C7.2,62 7.5,64.3 7.9,66.5 C8.2,68.7 8.6,70.8 8.9,72.7 C9.9,78.5 10.8,83.2 11.5,86.9 C13,94.2 13.8,97.3 13.8,97.3 L16.6,97.3 L16.6,97.4 Z" id="Shape" fill="#FFFFFF" sketch:type="MSShapeGroup"></path>
                            <path d="M23,85.4 L14.05,85.4 L14.05,97.4 L16.7070313,97.4 L23,97.4 L23,85.4 Z" id="Shape" fill="#FFFFFF" sketch:type="MSShapeGroup"></path>
                            <path id="Shape" fill="#B1C6D4" sketch:type="MSShapeGroup" d="M37,73.1 C36.9,73.7 36.8,74.3 36.7,74.9 C36.8,74.3 36.9,73.7 37,73.1 L37,73.1 Z"></path>
                            <path id="Shape" fill="#B1C6D4" sketch:type="MSShapeGroup" d="M37.5,70.5 L37.5,70.5 L37.5,70.6 L37.5,70.5 L37.5,70.5 Z"></path>
                            <path id="Shape" fill="#B1C6D4" sketch:type="MSShapeGroup" d="M35.5,82 L35.5,82.2 C35.4,82.1 35.5,82.1 35.5,82 L35.5,82 Z"></path>
                            <path id="Shape" fill="#B1C6D4" sketch:type="MSShapeGroup" d="M32.9,94.5 L32.9,94.7 L32.9,94.5 L32.9,94.5 Z"></path>
                            <path id="Shape" fill="#B1C6D4" sketch:type="MSShapeGroup" d="M33.2,93.1 L33.2,92.9 L33.2,92.8 C33.3,92.9 33.2,93 33.2,93.1 L33.2,93.1 L33.2,93.1 Z"></path>
                            <path id="Shape" fill="#B1C6D4" sketch:type="MSShapeGroup" d="M33.7,90.7 C33.7,90.9 33.6,91.1 33.6,91.2 C33.7,91.1 33.7,90.9 33.7,90.7 L33.7,90.7 Z"></path>
                            <path id="Shape" fill="#B1C6D4" sketch:type="MSShapeGroup" d="M34.2,88.7 L34.2,88.7 C34.2,88.7 34.1,88.7 34.2,88.7 C34.1,88.8 34.2,88.7 34.2,88.7 L34.2,88.7 Z"></path>
                            <path id="Shape" fill="#B1C6D4" sketch:type="MSShapeGroup" d="M32.3,96.8 L32.3,96.8 L32.3,97 L32.3,96.8 L32.3,96.8 Z"></path>
                            <path id="Shape" fill="#B1C6D4" sketch:type="MSShapeGroup" d="M32.2,97.1 C32.2,97.2 32.2,97.2 32.2,97.1 L32.2,97.1 Z"></path>
                            <path id="Shape" fill="#B1C6D4" sketch:type="MSShapeGroup" d="M34.3,88.1 L34.3,88.1 C34.3,88.2 34.2,88.4 34.2,88.6 C34.2,88.4 34.2,88.3 34.3,88.1 L34.3,88.1 Z"></path>
                            <path id="Shape" fill="#B1C6D4" sketch:type="MSShapeGroup" d="M35,84.3 C35,84.4 35,84.5 34.9,84.6 C35,84.5 35,84.4 35,84.3 L35,84.3 Z"></path>
                            <path id="Shape" fill="#B1C6D4" sketch:type="MSShapeGroup" d="M34.6,86.7 L34.6,86.5 L34.6,86.7 L34.6,86.7 L34.6,86.7 Z"></path>
                            <rect id="Rectangle-path" fill="#B1C6D4" sketch:type="MSShapeGroup" x="23" y="40.2" width="-0.1" height="47.3"></rect>
                            <path id="Shape" fill="#B1C6D4" sketch:type="MSShapeGroup" d="M23,97.4 L23,97.4 L23,87.4 L23,97.4 Z"></path>
                            <path id="Shape" fill="#B1C6D4" sketch:type="MSShapeGroup" d="M37.4,71.1 C37.4,70.9 37.5,70.8 37.5,70.6 L37.5,70.5 C37.5,70.5 37.5,70.5 37.5,70.4 C37.5,70.6 37.4,70.9 37.4,71.1 L37.4,71.1 Z"></path>
                            <path id="Shape" fill="#B1C6D4" sketch:type="MSShapeGroup" d="M35,84.6 L35,84.6 C35,84.5 35,84.4 35.1,84.3 C35.1,84.3 35.1,84.3 35.1,84.2 C35,84.4 35,84.5 35,84.6 L35,84.6 Z"></path>
                            <path id="Shape" fill="#B1C6D4" sketch:type="MSShapeGroup" d="M35.4,82.3 C35.4,82.2 35.4,82.2 35.4,82.3 L35.4,82 L35.4,81.9 C35.5,82 35.4,82.1 35.4,82.3 L35.4,82.3 Z"></path>
                            <path id="Shape" fill="#B1C6D4" sketch:type="MSShapeGroup" d="M35.9,79.6 C35.9,79.6 35.9,79.5 35.9,79.6 C35.9,79.5 35.9,79.5 35.9,79.6 L35.9,79.4 L35.9,79.6 L35.9,79.6 Z"></path>
                            <path id="Shape" fill="#B1C6D4" sketch:type="MSShapeGroup" d="M32.3,97 L32.3,97 L32.3,96.8 L32.3,96.8 L32.3,97 L32.3,97 Z"></path>
                            <path d="M36.4,76.8 C36.4,76.7 36.4,76.7 36.4,76.8 C36.5,76.4 36.5,76 36.6,75.6 C36.6,75.4 36.7,75.1 36.7,74.9 C36.8,74.3 36.9,73.7 37,73.1 C37,73.1 37,73.1 37,73 C36.8,74.3 36.6,75.6 36.4,76.8 L36.4,76.8 Z" id="Shape" fill="#B1C6D4" sketch:type="MSShapeGroup"></path>
                            <path id="Shape" fill="#B1C6D4" sketch:type="MSShapeGroup" d="M32.9,94.7 C32.9,94.7 32.9,94.6 32.9,94.7 L32.9,94.5 L32.9,94.5 L32.9,94.7 L32.9,94.7 Z"></path>
                            <path id="Shape" fill="#B1C6D4" sketch:type="MSShapeGroup" d="M34.6,86.7 L34.6,86.7 L34.6,86.4 L34.6,86.3 L34.6,86.7 L34.6,86.7 Z"></path>
                            <path id="Shape" fill="#B1C6D4" sketch:type="MSShapeGroup" d="M40,54.2 L40,54 L40,54.2 C39.9,54.3 40,54.3 40,54.2 L40,54.2 Z"></path>
                            <path id="Shape" fill="#B1C6D4" sketch:type="MSShapeGroup" d="M34.1,88.9 L34.1,88.8 L34.1,88.7 L34.1,88.7 L34.1,88.6 C34.1,88.4 34.2,88.2 34.2,88.1 L34.2,87.9 C34.3,88.2 34.2,88.6 34.1,88.9 L34.1,88.9 Z"></path>
                            <path id="Shape" fill="#B1C6D4" sketch:type="MSShapeGroup" d="M33.2,93.1 L33.2,93.1 C33.2,93 33.3,92.9 33.3,92.8 C33.3,92.8 33.3,92.8 33.3,92.7 C33.3,92.9 33.2,93 33.2,93.1 L33.2,93.1 Z"></path>
                            <path id="Shape" fill="#B1C6D4" sketch:type="MSShapeGroup" d="M33.6,91.3 L33.6,91.3 C33.6,91.1 33.7,90.9 33.7,90.7 L33.7,90.7 C33.7,90.9 33.7,91.1 33.6,91.3 L33.6,91.3 Z"></path>
                            <path d="M32.3,96.8 C32.4,96.5 32.5,96.2 32.6,95.7 C32.7,95.4 32.8,95 32.9,94.6 C32.9,94.5 32.9,94.5 33,94.4 C33.1,94 33.2,93.6 33.3,93.1 C33.3,93 33.4,92.8 33.4,92.7 C33.5,92.3 33.6,91.8 33.7,91.2 C33.7,91 33.8,90.8 33.8,90.6 C33.9,90 34,89.4 34.2,88.8 C34.3,88.5 34.3,88.1 34.4,87.8 C34.5,87.4 34.6,87.1 34.6,86.7 C34.6,86.6 34.6,86.5 34.7,86.3 C34.8,85.7 34.9,85.2 35,84.5 C35,84.4 35,84.2 35.1,84.1 C35.2,83.5 35.3,82.8 35.5,82.1 C35.5,82 35.5,81.9 35.6,81.8 C35.7,81.1 35.9,80.3 36,79.5 L36,79.3 C36.2,78.4 36.3,77.6 36.5,76.6 C36.7,75.4 36.9,74.2 37.1,72.9 C37.2,72.3 37.3,71.6 37.4,71 C37.4,70.8 37.5,70.6 37.5,70.3 C38.3,65.6 39.1,60.3 40,54.2 L40,53.9 C40.6,49.6 41.2,45 41.9,40 L23,40 L23,87.3 L29.5,87.3 L29.5,97.3 L32.1,97.3 L32.1,97.3 L32.1,97.2 C32.1,97.2 32.1,97.2 32.1,97.1 L32.1,96.9 C32.3,96.9 32.3,96.9 32.3,96.8 L32.3,96.8 Z" id="Shape" fill="#C8D7E1" sketch:type="MSShapeGroup"></path>
                            <path id="Shape" fill="#B1C6D4" sketch:type="MSShapeGroup" d="M23,97.4 L26.1,97.4 L23,97.4 L23,97.4 Z"></path>
                            <path d="M26.1,97.4 L29.1,97.4 L29.5,97.4 L29.5,87.4 L23,87.4 L23,97.4 L26.1,97.4 Z" id="Shape" fill="#C8D7E1" sketch:type="MSShapeGroup"></path>
                        </g>
                        <path d="M1.2,6.1 C1.6,10.3 2.1,14.3 2.5,18.1 C2.7,20 2.9,21.9 3.1,23.7 C3.7,29.2 4.4,34.4 5,39.2 C5.1,39.9 5.2,40.5 5.3,41.2 L24,41.2 L24,0.3 L0.6,0.3 C0.8,2.3 1,4.2 1.2,6.1 Z" id="Shape" fill="#009CDC" sketch:type="MSShapeGroup"></path>
                        <path d="M24,41.2 L42.8,41.2 C42.8,41 42.8,40.9 42.9,40.7 C43.4,36.9 43.9,32.9 44.4,28.7 C44.6,26.8 44.9,24.8 45.1,22.8 C45.1,22.6 45.1,22.4 45.2,22.2 C45.4,20.2 45.7,18.1 45.9,15.9 C45.9,15.7 45.9,15.5 46,15.3 C46.2,13.1 46.5,10.9 46.7,8.7 C46.7,8.3 46.8,7.8 46.8,7.4 C46.9,6.4 47,5.4 47.1,4.4 C47.2,3.5 47.3,2.5 47.4,1.6 C47.4,1.2 47.5,0.7 47.5,0.3 L24,0.3 L24,41.2 L24,41.2 Z" id="Shape" fill="#0087BE" sketch:type="MSShapeGroup"></path>
                    </g>
                </g>
            </g>
        </g>
    </g>
</svg>